<svg id="Capa_1" enable-background="new 0 0 512 512" height="512" viewBox="0 0 512 512" width="512" xmlns="http://www.w3.org/2000/svg"><g><path d="m478.968 123.871h-445.936c-6.016 0-11.656 1.608-16.515 4.418l-8.16 28.614v190.549c0 18.243 14.789 33.032 33.032 33.032h437.578l28.613-8.872c2.811-4.859 4.419-10.5 4.419-16.516v-198.193c.001-18.243-14.788-33.032-33.031-33.032z" fill="#c9c5c9"/><path d="m470.71 355.097h-27.46l-9.119-5.698-7.397 5.698h-88.153l-8.54-6.105-7.976 6.105h-132.13l-8.782-6.105-7.734 6.105h-132.129c-4.561 0-8.258-3.697-8.258-8.258v-181.678c0-4.561 3.697-8.258 8.258-8.258h132.129l7.734 6.062 8.782-6.062h132.129l8.79 6.062 7.726-6.062h71.244l6.388 4.596 13.947-4.596h40.551c4.561 0 8.258 3.697 8.258 8.258v181.677c0 4.561-3.698 8.259-8.258 8.259z" fill="#eceaec"/><g fill="#fff"><path d="m140.387 338.581h-74.322c-9.122 0-16.516-7.395-16.516-16.516v-132.13c0-9.122 7.395-16.516 16.516-16.516h74.323c9.122 0 16.516 7.395 16.516 16.516v132.129c-.001 9.122-7.395 16.517-16.517 16.517z"/><path d="m289.032 338.581h-66.065c-9.122 0-16.516-7.395-16.516-16.516v-132.13c0-9.122 7.395-16.516 16.516-16.516h66.065c9.122 0 16.516 7.395 16.516 16.516v132.129c0 9.122-7.394 16.517-16.516 16.517z"/><path d="m445.935 338.581h-74.323c-9.122 0-16.516-7.395-16.516-16.516v-132.13c0-9.122 7.395-16.516 16.516-16.516h74.323c9.122 0 16.516 7.395 16.516 16.516v132.129c.001 9.122-7.394 16.517-16.516 16.517z"/></g><path d="m173.419 156.903h16.516v198.194h-16.516z" fill="#b8b2b8"/><path d="m322.065 156.903h16.516v198.194h-16.516z" fill="#b8b2b8"/><path d="m265.282 319.633c-4.565 0-8.258-3.698-8.258-8.258v-102.21h-15.355c-4.565 0-8.258-3.698-8.258-8.258s3.694-8.258 8.258-8.258h23.613c4.565 0 8.258 3.698 8.258 8.258v110.468c0 4.56-3.693 8.258-8.258 8.258z" fill="#7ad7ee"/><path d="m107.097 321.887c-22.169 0-40.202-18.036-40.202-40.202v-51.089c0-22.165 18.032-40.202 40.202-40.202s40.202 18.036 40.202 40.202v51.089c-.001 22.166-18.033 40.202-40.202 40.202zm0-114.976c-13.056 0-23.685 10.625-23.685 23.685v51.089c0 13.06 10.629 23.685 23.685 23.685s23.685-10.625 23.685-23.685v-51.089c0-13.06-10.629-23.685-23.685-23.685z" fill="#7ad7ee"/><path d="m33.032 371.613c-9.122 0-16.516-7.395-16.516-16.516v-226.81c-9.832 5.722-16.516 16.421-16.516 28.616v198.194c0 18.243 14.789 33.032 33.032 33.032h445.935c12.196 0 22.892-6.684 28.614-16.516z" fill="#b8b2b8"/><path d="m438.323 202.161c-.032 0-.064 0-.105 0-14.814.185-30.734.282-41.589.242 1.169-1.561 2.427-3.23 3.726-4.956 4.607-6.11 10.596-14.056 17.883-24.02l-7.971-4.028-12.547 4.022c-4.075 5.489-7.604 10.174-10.55 14.087-13.186 17.484-14.879 19.73-13.25 24.964.79 2.536 2.984 4.766 5.5 5.609 1.105.367 2.613.871 23.718.871 8.323 0 19.693-.081 35.29-.274 4.556-.056 8.21-3.802 8.153-8.363-.057-4.525-3.742-8.154-8.258-8.154z" fill="#7ad7ee"/><path d="m429.323 325.508c8.421-6.77 13.927-17.026 13.927-28.645 0-20.351-16.556-36.907-36.903-36.907-17.597 0-32.831 12.52-36.209 29.766-.879 4.476 2.04 8.815 6.516 9.694 4.508.867 8.814-2.048 9.693-6.516 1.863-9.52 10.274-16.427 20-16.427 11.242 0 20.387 9.149 20.387 20.391s-9.145 20.387-20.387 20.387c-4.564 0-8.258 3.698-8.258 8.258s3.693 8.258 8.258 8.258c5.004 0 9.592 1.812 13.144 4.815l12.523 2.32 7.708-2.322c-2.439-5.1-6.026-9.556-10.399-13.072z" fill="#7ad7ee"/><path d="m418.227 173.419c3.689-5.043 7.586-10.411 11.932-16.516h-20.334c-4.464 6.174-8.484 11.637-12.107 16.516z" fill="#4bc3ef"/><path d="m419.491 338.581c4.477 3.743 7.243 9.298 7.243 15.577v.94h16.516v-.94c0-5.592-1.269-10.853-3.529-15.577z" fill="#4bc3ef"/></g></svg>