<?xml version="1.0" encoding="iso-8859-1"?>
<!-- Generator: Adobe Illustrator 19.0.0, SVG Export Plug-In . SVG Version: 6.00 Build 0)  -->
<svg version="1.1" id="Layer_1" xmlns="http://www.w3.org/2000/svg" xmlns:xlink="http://www.w3.org/1999/xlink" x="0px" y="0px"
	 viewBox="0 0 511.999 511.999" style="enable-background:new 0 0 511.999 511.999;" xml:space="preserve">
<path style="fill:#676872;" d="M350.575,42.216c-77.14,0-139.659,56.597-151.116,128.695
	c64.518,17.24,113.281,76.302,113.281,147.842c0,8.234-0.658,16.367-1.926,24.346c97.309,25.996,192.803-47.216,192.803-147.843
	C503.616,110.673,435.168,42.216,350.575,42.216z"/>
<path style="fill:#464856;" d="M267.394,87.04c25.926-25.925,59.517-41.394,95.66-44.31
	c-89.812-7.243-165.596,63.406-165.596,152.527c0,89,75.664,159.779,165.596,152.528C234.536,337.414,174.636,179.798,267.394,87.04
	z"/>
<path style="fill:#EAECEF;" d="M350.575,74.812c-62.426,0-113.756,47.492-119.839,108.314
	c45.096,23.687,78.402,70.169,81.721,126.412c77.956,25.992,158.563-32.156,158.563-114.282
	C471.018,128.737,417.093,74.812,350.575,74.812z"/>
<path style="fill:#F5F5F5;" d="M413.444,298.005C494.215,248.479,488.797,129.331,404,87.29
	C326.589,138.636,331.887,253.879,413.444,298.005z"/>
<path style="fill:#D3DAE5;" d="M261.932,195.257c0-61.08,45.469-111.535,104.405-119.378
	c-72.656-9.666-136.486,46.837-136.486,119.378c0,72.608,63.896,129.037,136.486,119.379
	C307.402,306.791,261.932,256.337,261.932,195.257z"/>
<circle style="fill:#577DDD;" cx="413.99" cy="246.924" r="13.211"/>
<path style="fill:#FC5151;" d="M373.364,196.236c0,11.291-9.151,20.442-20.441,20.442c-11.29,0-20.441-9.151-20.441-20.442
	c0-11.287,9.151-20.44,20.441-20.44C364.212,175.796,373.364,184.949,373.364,196.236z"/>
<path style="fill:#676872;" d="M160.697,470.795c-40.878,0-79.311-15.919-108.216-44.824
	C23.574,397.066,7.656,358.632,7.656,317.754c0-84.587,68.448-153.04,153.041-153.04c84.588,0,153.042,68.45,153.042,153.04
	C313.739,402.337,245.29,470.795,160.697,470.795z"/>
<path style="fill:#464856;" d="M32.766,317.753c0-80.661,62.093-146.201,140.486-152.527C83.225,157.97,7.656,228.859,7.656,317.753
	c0,40.878,15.919,79.312,44.824,108.216c31.937,31.937,75.485,47.963,120.773,44.311C94.87,463.956,32.766,398.426,32.766,317.753z"
	/>
<circle style="fill:#EAECEF;" cx="160.696" cy="317.75" r="120.442"/>
<path style="fill:#D3DAE5;" d="M72.332,317.753c0-61.08,45.469-111.536,104.405-119.378
	c-72.656-9.667-136.486,46.837-136.486,119.378c0,72.617,63.906,129.036,136.486,119.379
	C117.802,429.289,72.332,378.834,72.332,317.753z"/>
<path style="fill:#F5F5F5;" d="M213.548,209.501c-78.21,51.157-73.022,167.4,9.318,211.429
	C304.49,371.641,299.207,251.4,213.548,209.501z"/>
<g>
	<circle style="fill:#577DDD;" cx="97.48" cy="369.415" r="13.415"/>
	<circle style="fill:#577DDD;" cx="224.112" cy="369.415" r="13.211"/>
</g>
<g>
	<path style="fill:#4B6FB7;" d="M414.196,246.919c0-4.844,2.615-9.067,6.505-11.367c-1.969-1.164-4.256-1.844-6.708-1.844
		c-7.298,0-13.212,5.916-13.212,13.211c0,10.193,11.11,16.577,19.92,11.367C416.811,255.986,414.196,251.764,414.196,246.919z"/>
	<path style="fill:#4B6FB7;" d="M104.191,357.811c-8.92-5.171-20.124,1.285-20.124,11.604c0,10.295,11.174,16.786,20.124,11.606
		C95.247,375.84,95.261,362.984,104.191,357.811z"/>
	<path style="fill:#4B6FB7;" d="M230.822,358.049c-8.809-5.208-19.92,1.172-19.92,11.366c0,10.193,11.109,16.578,19.92,11.368
		C222.158,375.66,222.154,363.174,230.822,358.049z"/>
</g>
<path style="fill:#FC5151;" d="M182.486,319.734c0,11.291-9.151,20.442-20.44,20.442c-11.29,0-20.44-9.151-20.44-20.442
	c0-11.287,9.15-20.44,20.44-20.44C173.335,299.293,182.486,308.446,182.486,319.734z"/>
<g>
	<path style="fill:#AA1A1A;" d="M362.468,178.168c-13.556-7.178-29.986,2.662-29.986,18.068c0,15.376,16.392,25.264,29.986,18.071
		C347.951,206.619,347.971,185.843,362.468,178.168z"/>
	<path style="fill:#AA1A1A;" d="M171.591,301.665c-13.553-7.181-29.985,2.662-29.985,18.068c0,15.374,16.395,25.27,29.985,18.07
		C157.073,330.12,157.094,309.34,171.591,301.665z"/>
</g>
<path d="M376.776,243.218h-47.941c-4.143,0-7.501,3.357-7.501,7.501s3.357,7.501,7.501,7.501h47.941
	c4.143,0,7.501-3.357,7.501-7.501S380.919,243.218,376.776,243.218z"/>
<path d="M376.776,265.724h-47.941c-4.143,0-7.501,3.357-7.501,7.501s3.357,7.501,7.501,7.501h47.941
	c4.143,0,7.501-3.357,7.501-7.501S380.919,265.724,376.776,265.724z"/>
<path d="M435.586,245.918c0-11.421-9.291-20.712-20.711-20.712c-11.421,0-20.713,9.291-20.713,20.712s9.292,20.712,20.713,20.712
	C426.295,266.63,435.586,257.34,435.586,245.918z M409.164,245.918c0-3.148,2.562-5.711,5.712-5.711c3.147,0,5.71,2.562,5.71,5.711
	s-2.562,5.711-5.71,5.711C411.726,251.629,409.164,249.067,409.164,245.918z"/>
<path d="M352.806,224.179c15.406,0,27.942-12.535,27.942-27.943c0-15.406-12.534-27.941-27.942-27.941
	c-5.367,0-10.382,1.524-14.643,4.157l-42.038-33.933c-3.226-2.604-7.946-2.099-10.548,1.125c-2.602,3.224-2.098,7.946,1.125,10.548
	l41.252,33.299C318.389,202.065,332,224.179,352.806,224.179z M352.806,183.296c7.136,0,12.94,5.805,12.94,12.939
	c0,7.137-5.805,12.941-12.94,12.941c-7.136,0-12.939-5.806-12.939-12.941C339.867,189.101,345.67,183.296,352.806,183.296z"/>
<path d="M160.58,445.7c70.602,0,127.945-57.478,127.945-127.946c0-96.954-104.808-159.493-190.253-111.748
	c-26.858,14.963-47.492,39.791-57.274,66.262C9.851,353.872,69.316,445.7,160.58,445.7z M99.166,223.011l4.559,8.176
	c1.373,2.462,3.926,3.849,6.559,3.849c5.686,0,9.337-6.145,6.545-11.154l-4.571-8.198c7.279-3.459,14.981-6.168,23.01-8.013
	l1.495,9.29c0.593,3.687,3.778,6.311,7.397,6.311c4.639,0,8.146-4.148,7.414-8.693l-1.493-9.276
	c8.106-0.751,16.161-0.65,24.361,0.359l-1.77,9.231c-0.881,4.6,2.632,8.915,7.375,8.915c3.526,0,6.67-2.497,7.359-6.089l1.772-9.238
	c7.961,2.084,15.582,5.014,22.76,8.694l-4.813,8.055c-2.124,3.556-0.964,8.161,2.592,10.286c3.558,2.125,8.163,0.962,10.286-2.592
	l4.796-8.028c6.696,4.644,12.865,9.993,18.405,15.939l-7.241,5.894c-3.213,2.614-3.697,7.339-1.082,10.552
	c1.482,1.821,3.643,2.766,5.822,2.766c3.35,0,4.385-1.404,11.986-7.59c4.69,6.598,8.691,13.719,11.895,21.257l-8.876,3.08
	c-3.913,1.357-5.985,5.632-4.626,9.545c1.363,3.928,5.651,5.982,9.545,4.626l8.883-3.083c2.12,7.724,3.447,15.773,3.869,24.057
	c-0.078-0.001-9.435-0.142-9.512-0.142c-4.09,0-7.437,3.284-7.498,7.389c-0.063,4.142,3.244,7.55,7.388,7.612l9.395,0.141
	c-0.668,8.257-2.226,16.266-4.581,23.929l-8.788-3.348c-3.865-1.477-8.204,0.468-9.68,4.339c-1.475,3.87,0.468,8.205,4.339,9.68
	l8.77,3.341c-17.893,38.811-57.163,65.817-102.629,65.817c-46.661,0-86.803-28.444-104.001-68.903l8.877-3.08
	c3.913-1.358,5.985-5.633,4.627-9.546c-1.358-3.912-5.632-5.986-9.546-4.627l-8.884,3.083c-2.12-7.724-3.447-15.772-3.869-24.057
	c0.077,0.001,9.438,0.142,9.515,0.142c4.09,0,7.437-3.284,7.498-7.389c0.063-4.142-3.245-7.551-7.388-7.612l-9.398-0.141
	c0.668-8.258,2.227-16.267,4.581-23.93c9.586,3.652,9.68,3.842,11.459,3.842c3.022,0,5.87-1.84,7.011-4.831
	c1.475-3.871-0.468-8.205-4.338-9.681l-8.773-3.343c3.426-7.431,7.635-14.429,12.522-20.888c7.34,6.348,8.463,7.944,11.977,7.944
	c6.878,0,10.184-8.613,4.909-13.174l-7.065-6.11C86.004,232.621,92.33,227.458,99.166,223.011z"/>
<path d="M137.958,381.717h47.94c4.143,0,7.501-3.357,7.501-7.501s-3.357-7.501-7.501-7.501h-47.94c-4.143,0-7.501,3.357-7.501,7.501
	S133.815,381.717,137.958,381.717z"/>
<path d="M137.958,404.223h47.94c4.143,0,7.501-3.357,7.501-7.501s-3.357-7.501-7.501-7.501h-47.94c-4.143,0-7.501,3.357-7.501,7.501
	S133.815,404.223,137.958,404.223z"/>
<path d="M76.45,369.415c0,11.533,9.384,20.916,20.917,20.916c11.532,0,20.915-9.383,20.915-20.916
	c0-11.532-9.383-20.915-20.915-20.915C85.833,348.5,76.45,357.883,76.45,369.415z M97.367,363.502c3.261,0,5.914,2.652,5.914,5.914
	s-2.652,5.915-5.914,5.915c-3.262,0-5.916-2.653-5.916-5.915S94.104,363.502,97.367,363.502z"/>
<path d="M203.285,369.415c0,11.421,9.292,20.713,20.713,20.713c11.42,0,20.711-9.292,20.711-20.713
	c0-11.42-9.291-20.711-20.711-20.711C212.577,348.704,203.285,357.995,203.285,369.415z M229.707,369.415
	c0,3.149-2.562,5.712-5.71,5.712c-3.149,0-5.712-2.562-5.712-5.712c0-3.147,2.561-5.71,5.712-5.71
	C227.146,363.706,229.707,366.268,229.707,369.415z"/>
<path d="M161.929,347.676c20.81,0,34.387-22.098,24.872-40.649l41.301-33.339c3.223-2.602,3.727-7.325,1.125-10.548
	c-2.602-3.223-7.326-3.729-10.548-1.125l-42.068,33.958c-18.548-11.504-42.623,1.931-42.623,23.759
	C133.987,335.141,146.521,347.676,161.929,347.676z M161.929,306.793c7.136,0,12.939,5.805,12.939,12.939
	c0,7.137-5.805,12.941-12.939,12.941c-7.136,0-12.939-5.806-12.939-12.941C148.988,312.598,154.793,306.793,161.929,306.793z"/>
<path d="M481.786,100.453c-2.428-3.358-7.117-4.111-10.473-1.685c-3.357,2.427-4.111,7.116-1.685,10.473
	c68.521,94.796,1.446,230.556-118.171,230.556c-10.596,0-21.128-1.136-31.397-3.383c0.511-4.486,0.838-9.017,0.976-13.583
	c0.008-0.252,0.016-0.503,0.023-0.755c0.03-1.166,0.049-2.334,0.054-3.504c9.893,2.409,20.058,3.631,30.343,3.631
	c14.572,0,28.873-2.433,42.503-7.232c3.907-1.375,5.961-5.658,4.584-9.565c-1.375-3.908-5.661-5.964-9.565-4.584
	c-12.026,4.233-24.65,6.381-37.523,6.381c-10.557,0-20.968-1.45-31.02-4.316c-4.71-51.625-33.913-96.248-76.087-122.142
	c-0.01-0.006-0.019-0.012-0.029-0.018c-1.535-0.942-3.08-1.866-4.644-2.755c0.829-5.783,2.091-11.407,3.741-16.85
	c9.64,3.672,9.732,3.861,11.51,3.861c8.244,0,10.454-11.547,2.671-14.512l-8.882-3.384c3.413-7.483,7.611-14.506,12.486-20.972
	c7.521,6.505,8.609,8.071,12.123,8.071c6.906,0,10.165-8.628,4.909-13.174l-7.222-6.246c5.73-5.796,12.08-10.962,18.944-15.398
	l4.642,8.325c1.373,2.462,3.926,3.849,6.559,3.849c1.236,0,2.49-0.306,3.645-0.95c3.618-2.018,4.915-6.587,2.898-10.204l-4.63-8.304
	c7.297-3.437,15.017-6.119,23.063-7.944l1.501,9.326c0.593,3.687,3.778,6.311,7.397,6.311c4.639,0,8.146-4.148,7.414-8.693
	l-1.495-9.291c7.933-0.724,16.079-0.644,24.363,0.374l-1.77,9.231c-0.881,4.6,2.632,8.915,7.375,8.915
	c3.526,0,6.67-2.497,7.359-6.089l1.772-9.238c7.961,2.084,15.582,5.014,22.76,8.694l-4.813,8.055
	c-2.124,3.556-0.964,8.161,2.592,10.286c3.558,2.125,8.163,0.962,10.286-2.592l4.796-8.028c6.696,4.644,12.865,9.992,18.404,15.938
	l-7.24,5.893c-3.213,2.614-3.697,7.339-1.082,10.552c2.613,3.21,7.337,3.699,10.552,1.082l7.256-5.906
	c4.69,6.598,8.691,13.719,11.895,21.257l-8.877,3.081c-3.913,1.358-5.984,5.633-4.625,9.546c1.075,3.099,3.98,5.042,7.086,5.042
	c0.815,0,1.646-0.134,2.46-0.417l8.882-3.083c2.12,7.724,3.447,15.773,3.869,24.056l-9.398-0.141
	c-4.149-0.054-7.55,3.245-7.612,7.388c-0.062,4.142,3.244,7.55,7.388,7.612l9.393,0.141c-0.653,8.227-2.172,16.249-4.511,23.956
	l-8.855-3.374c-3.867-1.477-8.204,0.468-9.68,4.339c-1.475,3.87,0.468,8.205,4.339,9.68l8.881,3.384
	c-9.277,20.275-24.555,37.606-44.541,49.648c-3.549,2.138-4.691,6.747-2.554,10.295c2.139,3.55,6.749,4.692,10.295,2.554
	c18.561-11.182,34.097-27.009,44.93-45.767c48.512-83.998-11.914-191.843-110.869-191.843c-62.519,0-114.78,44.891-125.805,104.586
	c-5.447-2.415-11.03-4.511-16.721-6.301C232.237,51.195,372.953,9.926,454.369,91.344c2.93,2.928,7.679,2.928,10.608,0
	c2.929-2.93,2.929-7.679,0-10.608c-62.742-62.74-164.292-62.747-227.039,0c-22.199,22.198-37.141,49.734-43.527,80.039
	c-51.631-11.019-107.244,3.353-147.352,43.458c-62.741,62.741-62.749,164.295,0,227.042c62.241,62.241,161.472,62.149,223.802,3.149
	c3.008-2.848,3.138-7.596,0.29-10.605c-2.848-3.007-7.596-3.139-10.603-0.29c-56.64,53.614-146.589,53.427-202.881-2.863
	c-56.88-56.88-56.882-148.942,0-205.825c37.877-37.875,91.648-50.843,140.845-37.653c58.69,15.732,103.574,67.968,107.338,131.792
	c0,0,0.002,0.013,0.003,0.02c0.171,2.903,0.268,5.821,0.268,8.754c0,0.974-0.011,1.947-0.029,2.918
	c-0.135,6.765-0.74,13.563-1.804,20.25c-0.028,0.178-0.044,0.355-0.059,0.532c-3.855,23.852-13.557,46.166-28.624,65.506
	c-2.545,3.269-1.96,7.981,1.308,10.527c3.268,2.545,7.982,1.961,10.527-1.308c15.075-19.355,25.285-41.4,30.233-64.956
	c11.063,2.36,22.388,3.574,33.783,3.574c88.73,0,160.542-71.801,160.542-160.541C512,160.234,501.552,127.797,481.786,100.453z"/>
<g>
</g>
<g>
</g>
<g>
</g>
<g>
</g>
<g>
</g>
<g>
</g>
<g>
</g>
<g>
</g>
<g>
</g>
<g>
</g>
<g>
</g>
<g>
</g>
<g>
</g>
<g>
</g>
<g>
</g>
</svg>
